<svg width="16" height="16" viewBox="0 0 16 16" fill="none" xmlns="http://www.w3.org/2000/svg">
<path d="M8 16C12.4183 16 16 12.4183 16 8C16 3.58172 12.4183 0 8 0C3.58172 0 0 3.58172 0 8C0 12.4183 3.58172 16 8 16Z" fill="#FB95A5"/>
<path fill-rule="evenodd" clip-rule="evenodd" d="M4.57678 4.57666C4.8608 4.29264 5.32128 4.29264 5.6053 4.57666L8.00013 6.97149L10.395 4.57666C10.679 4.29264 11.1395 4.29264 11.4235 4.57666C11.7075 4.86068 11.7075 5.32116 11.4235 5.60518L9.02865 8.00001L11.4235 10.3948C11.7075 10.6789 11.7075 11.1393 11.4235 11.4234C11.1395 11.7074 10.679 11.7074 10.395 11.4234L8.00013 9.02853L5.6053 11.4234C5.32128 11.7074 4.8608 11.7074 4.57678 11.4234C4.29277 11.1393 4.29277 10.6789 4.57678 10.3948L6.97161 8.00001L4.57678 5.60518C4.29277 5.32116 4.29277 4.86068 4.57678 4.57666Z" fill="white"/>
</svg>
