<svg width="100" height="101" viewBox="0 0 100 101" fill="none" xmlns="http://www.w3.org/2000/svg">
<circle cx="50" cy="50" r="50" fill="#FE4356"/>
<path fill-rule="evenodd" clip-rule="evenodd" d="M41.066 42.1701L44.7091 41.0342C46.0208 40.3241 46.8952 39.1882 46.6036 38.3363L44.2719 30.2425C43.5434 27.5446 41.9402 27.9704 40.9201 28.1125C36.6941 29.1066 36.111 29.1066 32.7595 33.7925C27.8045 41.8861 48.3525 73.8354 57.9706 72.9833C63.6539 71.9895 63.9455 71.5634 66.7144 68.2976C67.2973 67.4454 68.463 66.3095 66.1313 64.4636L59.8651 58.9257C58.9907 58.2157 57.6791 58.4996 56.3675 59.3518L53.8901 61.9076C50.1011 61.7657 39.6087 45.578 41.066 42.1701Z" fill="white"/>
</svg>
